<svg id="Group_65" data-name="Group 65" xmlns="http://www.w3.org/2000/svg" width="90.054" height="89.968" viewBox="0 0 90.054 89.968">
  <path id="Path_47" data-name="Path 47" d="M-415.64,289.565c-.877-.054-1.757-.011-2.635-.021-1.171-.014-1.226-.059-1.226-1.255q0-29.256,0-58.511c0-1.2.01-1.2,1.172-1.337.949-.115,1.378-.463,1.42-1.36.087-1.872.081-3.747,0-5.62a1.455,1.455,0,0,0-1.164-1.376,4.467,4.467,0,0,0-1.307-.125c-1.874,0-3.748.005-5.622,0-1.127-.006-1.167-.052-1.177-1.206-.009-1.112.031-2.226-.017-3.338-.066-1.541-.652-2.111-2.172-2.125-1.815-.017-3.631-.009-5.447,0-1.854.006-2.405.546-2.443,2.4-.023,1.142-.008,2.284-.008,3.426,0,.586-.244.858-.839.85-.673-.008-1.348-.019-2.02,0s-.948-.259-.94-.934c.014-1.258.026-2.519-.006-3.777-.036-1.411-.531-1.932-1.909-1.957q-3.03-.052-6.061,0c-1.386.025-1.881.542-1.918,1.948-.034,1.288-.008,2.577-.013,3.865,0,.587-.249.847-.841.848-3.339,0-6.677.014-10.015-.011-.282,0-.631.025-.729-.342-.11-.411.226-.555.509-.709a1.612,1.612,0,0,0,.914-1.408c.075-2.195.087-4.392,0-6.586a1.418,1.418,0,0,0-1.39-1.439,7.635,7.635,0,0,0-1.14-.044q-5.315,0-10.63,0c-1.551,0-1.548,0-1.555-1.54-.006-1.347.043-2.7-.025-4.041-.053-1.052-.312-1.37-1.152-1.587q-3.3,0-6.609,0c-.907.08-1.027.739-1.042,1.449-.032,1.576.007,3.154-.022,4.73-.007.392.042.821-.522.965-1.664.425-2.238.005-2.239-1.685,0-.7.006-1.4,0-2.1a13.075,13.075,0,0,0-.069-2.186c-.116-.642-.36-1.192-1.16-1.172-2.184,0-4.368,0-6.552,0-.852.077-1.012.686-1.029,1.375-.038,1.58,0,3.16-.021,4.74-.015.932-.113,1.028-.988,1.058-.672.024-1.347-.021-2.019.023-1.024.067-1.512.519-1.535,1.541-.049,2.136-.03,4.272-.008,6.409a1.344,1.344,0,0,0,.69,1.334c.849.37.886,1.032.886,1.8q-.014,19.535.014,39.068a1.949,1.949,0,0,1-1.258,2.091,5.293,5.293,0,0,0-3.1,5.589,2.66,2.66,0,0,1-.262,1.521,5.71,5.71,0,0,0-.546,3.835,1.378,1.378,0,0,1-.035,1.032,7.837,7.837,0,0,0-.862,3.35v.527a6.9,6.9,0,0,0,1.11,3.691,7.745,7.745,0,0,0,4.285,3,.985.985,0,0,1,.851,1.11c-.022,1.049,0,2.1-.009,3.15-.012.984-.108,1.076-1.128,1.088-1.254.015-2.508.008-3.762,0a1.184,1.184,0,0,0-1.347.962v.879c.331.844,1.057.79,1.768.79q43.224,0,86.448,0c.146,0,.293.005.439,0,.964-.042,1.379-.4,1.4-1.2C-414.247,290.068-414.651,289.625-415.64,289.565Zm-17.814-73.585c.41-.335,1.282-.119,1.951-.117.844,0,1.975-.292,2.454.134.547.486.157,1.641.17,2.5.026,1.8.008,1.8-1.811,1.8h-.527v-.054c-.758,0-1.766.3-2.207-.077-.518-.438-.152-1.478-.165-2.256C-433.6,217.243-433.89,216.335-433.454,215.979Zm-12.131-.121h.75c.616.059,1.6-.324,2.06.133s.114,1.441.13,2.194c.015.668.228,1.553-.108,1.95-.4.47-1.312.129-2,.15-.845.025-1.983.312-2.461-.113-.552-.49-.156-1.649-.169-2.517C-447.411,215.858-447.392,215.858-445.584,215.858Zm-35.4-11.235c.49-.409,1.567-.071,2.374-.153.881-.089,1.239.151,1.16,1.114a32.939,32.939,0,0,0-.013,3.509c.011.469-.149.61-.6.593a24.43,24.43,0,0,0-2.456,0c-.586.038-.687-.212-.658-.715.036-.642.009-1.287.009-2.069C-481.075,206.214-481.555,205.1-480.983,204.624Zm-11.648.036c.474-.544,1.6-.076,2.43-.185.908-.12,1.218.191,1.144,1.123a26.216,26.216,0,0,0-.006,3.331c.031.643-.208.841-.8.751-.085-.014-.175,0-.263,0-.866-.059-2.028.375-2.513-.183-.419-.481-.087-1.616-.087-2.461h.009C-492.715,206.217-493.035,205.123-492.631,204.66Zm-4.7,10.844a25.105,25.105,0,0,0,0-2.808c-.023-.541.091-.743.7-.742q16.641.03,33.281,0c.558,0,.692.162.667.691a24.389,24.389,0,0,0,0,2.808c.054.769-.139,1.023-.974,1.017-5.444-.043-10.889-.022-16.333-.022-5.474,0-10.948-.021-16.421.023C-497.207,216.478-497.378,216.242-497.327,215.5Zm-4.546,61.472a3.858,3.858,0,0,1,.908-2.319,1.589,1.589,0,0,0,.292-1.849,3.221,3.221,0,0,1,.526-3.526,1.6,1.6,0,0,0,.258-1.7,2.767,2.767,0,0,1,1.007-3.334,3.658,3.658,0,0,1,4.186-.021,2.756,2.756,0,0,1,1.028,3.327,1.671,1.671,0,0,0,.288,1.778,3.332,3.332,0,0,1,.488,3.538,1.4,1.4,0,0,0,.13,1.556,4.18,4.18,0,0,1,.6,4.892,4.772,4.772,0,0,1-4.15,2.661C-499.789,281.982-502,279.812-501.873,276.975Zm24.277,12.847c-2.017-.041-4.036-.037-6.053,0-.56.01-.68-.172-.674-.695.027-2.193.011-4.387.012-6.58,0-2.077-.015-4.153.005-6.23a3.639,3.639,0,0,1,3.672-3.747,3.662,3.662,0,0,1,3.732,3.787c.015,4.24,0,8.481.017,12.722C-476.883,289.628-476.991,289.834-477.6,289.822Zm12.408.006c-2.84-.057-5.681-.047-8.522,0-.716.011-.931-.152-.924-.9.039-4.158.033-8.317.014-12.475a5.94,5.94,0,0,0-4.544-6,5.928,5.928,0,0,0-7.385,5.356c-.1,4.361-.058,8.726-.035,13.089,0,.708-.147.946-.9.931-2.459-.051-4.92-.039-7.379,0-.591.008-.741-.171-.726-.74.036-1.375.03-2.753-.008-4.128-.016-.559.136-.79.719-.94a6.91,6.91,0,0,0,5.291-5.059,6.209,6.209,0,0,0-.708-4.977,1.294,1.294,0,0,1-.188-1.127,5.32,5.32,0,0,0-.612-4.219,1.4,1.4,0,0,1-.217-.99,5.15,5.15,0,0,0-3.639-6.057c-.58-.178-.688-.434-.687-.972q.02-20.471-.007-40.941c0-.736.2-.92.922-.915,4.92.033,9.839.017,14.76.017,4.949,0,9.9.013,14.847-.015.654,0,.836.161.842.825.006.7-.3.727-.841.722-1.544-.014-1.858.313-1.862,1.834,0,1.494-.01,2.987,0,4.481.01,1.266.358,1.6,1.619,1.628,1.143.021,1.143.021,1.143,1.177q0,29.7.017,59.391C-464.2,289.6-464.364,289.845-465.188,289.828Zm27.549-.011q-2.369-.043-4.739,0c-.505.01-.637-.149-.632-.641.024-2.282.01-4.564.01-6.846,0-2.223.026-4.447-.016-6.67-.012-.637.184-.772.783-.755,1.549.043,3.1.032,4.651,0,.461-.008.593.126.591.587q-.023,6.846,0,13.692C-436.987,289.7-437.152,289.826-437.639,289.817Zm8.249,0c-1.549-.03-3.1-.035-4.649,0-.553.014-.688-.163-.681-.695.028-2.281.011-4.562.011-6.842,0-2.193.02-4.386-.013-6.579-.009-.584.1-.82.751-.8,1.548.05,3.1.035,4.649,0,.5-.01.639.143.637.64q-.027,6.8,0,13.6C-428.68,289.706-428.873,289.828-429.39,289.817Zm7.259-.915c0,.721-.172.978-.911.919a14.751,14.751,0,0,0-2.456,0c-.768.068-.9-.236-.9-.935.03-4.742.016-9.486.016-14.229,0-1.758-.264-2.019-2.037-2.019q-7.553,0-15.107,0c-1.41,0-1.75.344-1.75,1.759,0,4.831-.025,9.662.023,14.492.008.817-.243.937-.975.932q-7.29-.049-14.58,0c-.848.007-1.123-.146-1.119-1.076.041-9.925.026-19.85.026-29.776s.009-19.85-.018-29.776c0-.762.166-.973.955-.971q18.928.041,37.856,0c.74,0,.984.129.983.944Q-422.167,259.039-422.131,288.9Zm.4-62.978q-10.146.016-20.292.006c-7.262,0-14.524-.009-21.785.016-.679,0-.947-.153-.857-.855.1-.8-.351-1.878.188-2.343.462-.4,1.5-.142,2.289-.143q20.906-.005,41.814-.022c.817,0,1.086.217.99,1.012-.091.747.311,1.732-.152,2.194S-420.983,225.923-421.735,225.924Z" transform="translate(504.322 -202.246)" fill="#003b71"/>
  <path id="Path_48" data-name="Path 48" d="M-469.077,303.1a4.1,4.1,0,0,0-4.493-3.607,4.147,4.147,0,0,0-3.788,4.1c-.02,1.317-.012,2.634,0,3.951.007.955.415,1.376,1.388,1.4.907.024,1.814.005,2.721.005.966,0,1.932.01,2.9,0A1.216,1.216,0,0,0-469,307.658,32.121,32.121,0,0,0-469.077,303.1Zm-2.707,3.553c-.494-.024-.99-.006-1.485-.006-1.818,0-1.82,0-1.818-1.79a11.123,11.123,0,0,1,.028-1.4,1.882,1.882,0,0,1,1.9-1.7,1.8,1.8,0,0,1,1.79,1.674c.089.895.051,1.8.084,2.7C-471.268,306.51-471.4,306.672-471.784,306.654Z" transform="translate(491.421 -248.792)" fill="#003b71"/>
  <path id="Path_49" data-name="Path 49" d="M-469.074,278.848a4.106,4.106,0,0,0-4.564-3.623,4.159,4.159,0,0,0-3.721,4.162c-.015,1.287-.009,2.575,0,3.862.007.967.405,1.392,1.37,1.42.906.026,1.814.006,2.721.006.965,0,1.931.008,2.9,0A1.216,1.216,0,0,0-469,283.405,31.512,31.512,0,0,0-469.074,278.848Zm-2.792,3.534c-.465-.021-.932-.005-1.4-.005-1.822,0-1.823,0-1.822-1.787,0-.408-.02-.817.009-1.223a1.91,1.91,0,0,1,1.831-1.873,1.833,1.833,0,0,1,1.9,1.756c.082.866.03,1.745.067,2.617C-471.259,282.322-471.485,282.4-471.866,282.382Z" transform="translate(491.42 -237.173)" fill="#003b71"/>
  <path id="Path_50" data-name="Path 50" d="M-473.1,250.811a4.223,4.223,0,0,0-4.226,4.334c-.027,1.228-.018,2.457,0,3.685.014.992.4,1.392,1.374,1.421.935.028,1.872.006,2.807.005.966,0,1.931.023,2.9-.008.931-.031,1.307-.433,1.32-1.376q.025-1.842,0-3.685A4.208,4.208,0,0,0-473.1,250.811Zm1.893,6.88c.013.322-.251.254-.44.257-.5.006-.991,0-1.486,0-1.911,0-1.908,0-1.912-1.874a5.2,5.2,0,0,1,.145-1.644,1.748,1.748,0,0,1,1.667-1.3,1.69,1.69,0,0,1,1.814,1.092A10.255,10.255,0,0,1-471.208,257.691Z" transform="translate(491.409 -225.493)" fill="#003b71"/>
  <path id="Path_51" data-name="Path 51" d="M-445.7,255.157a4.234,4.234,0,0,0-4.214-4.348,4.205,4.205,0,0,0-4.179,4.449q-.009,1.756,0,3.51c.007,1.1.362,1.463,1.472,1.485.906.018,1.813,0,2.72,0,.936,0,1.873.02,2.808-.006.979-.027,1.374-.424,1.393-1.408C-445.676,257.615-445.666,256.385-445.7,255.157Zm-2.292,2.407c.017.324-.167.39-.439.386-.5-.007-.995,0-1.492,0-1.9,0-1.9,0-1.892-1.887a4.836,4.836,0,0,1,.137-1.65,1.8,1.8,0,0,1,1.865-1.279,1.754,1.754,0,0,1,1.713,1.459A17.635,17.635,0,0,1-447.991,257.565Z" transform="translate(480.281 -225.492)" fill="#003b71"/>
  <path id="Path_52" data-name="Path 52" d="M-445.88,303.257a4.05,4.05,0,0,0-4.249-3.771,4.071,4.071,0,0,0-4,3.855c-.06,1.4-.046,2.807-.034,4.211.009.97.416,1.366,1.4,1.39.907.022,1.814,0,2.72,0,.966,0,1.932.024,2.9-.008.887-.029,1.305-.423,1.318-1.3C-445.808,306.18-445.79,304.714-445.88,303.257Zm-2.75,3.4c-.467-.023-.935-.006-1.4-.005-1.846,0-1.847,0-1.844-1.865,0-.438-.018-.879.023-1.314a1.864,1.864,0,0,1,1.888-1.7,1.825,1.825,0,0,1,1.808,1.681c.062.9.019,1.81.045,2.715C-448.1,306.548-448.259,306.67-448.629,306.653Z" transform="translate(480.318 -248.792)" fill="#003b71"/>
  <path id="Path_53" data-name="Path 53" d="M-445.877,279.037a4.053,4.053,0,0,0-4.2-3.823,4.075,4.075,0,0,0-4.054,3.894c-.059,1.4-.045,2.807-.03,4.211.01.92.418,1.323,1.35,1.351s1.872.006,2.808.006,1.873.021,2.808-.005,1.359-.418,1.372-1.337C-445.808,281.9-445.789,280.465-445.877,279.037Zm-2.763,3.345c-.437-.021-.876,0-1.314,0-1.925,0-1.926,0-1.924-1.962,0-.409-.017-.82.023-1.226a1.865,1.865,0,0,1,1.9-1.7,1.824,1.824,0,0,1,1.8,1.69c.06.9.017,1.81.044,2.715C-448.1,282.3-448.279,282.4-448.639,282.382Z" transform="translate(480.319 -237.174)" fill="#003b71"/>
  <path id="Path_54" data-name="Path 54" d="M-384.289,312.944c-.014-.931-.406-1.312-1.35-1.32q-2.283-.018-4.565,0c-.9.006-1.355.357-1.369,1.227-.039,2.428-.032,4.857,0,7.284a1.111,1.111,0,0,0,1.232,1.184c1.609,0,3.218.012,4.827,0a1.115,1.115,0,0,0,1.229-1.265q0-1.8,0-3.6C-384.285,315.285-384.272,314.114-384.289,312.944Zm-2.277,3.563v.524c0,2.259,0,2.247-2.3,2.009-.363-.038-.425-.171-.423-.483q.016-2.1,0-4.2c0-.317.062-.513.427-.463.029,0,.058,0,.087,0,.717.057,1.816-.319,2.064.139.352.647.09,1.63.09,2.47Z" transform="translate(450.364 -254.599)" fill="#003b71"/>
  <path id="Path_55" data-name="Path 55" d="M-384.291,265.238c0-1.17.012-2.341,0-3.511-.013-.934-.4-1.326-1.339-1.334q-2.282-.021-4.565,0c-.938.007-1.376.376-1.389,1.307q-.051,3.554,0,7.11c.013.889.429,1.27,1.317,1.285q2.326.038,4.652,0c.959-.016,1.313-.392,1.324-1.345C-384.28,267.579-384.29,266.408-384.291,265.238Zm-2.281-.1v.581c0,2.232,0,2.222-2.217,2.088-.364-.022-.512-.1-.506-.491.02-1.4.016-2.8,0-4.2,0-.327.078-.506.435-.456a.7.7,0,0,0,.088,0c.7.011,1.732-.253,2.015.1C-386.233,263.4-386.668,264.425-386.571,265.139Z" transform="translate(450.37 -230.075)" fill="#003b71"/>
  <path id="Path_56" data-name="Path 56" d="M-384.289,287.409c-.01-1-.385-1.391-1.362-1.4q-2.282-.019-4.564,0c-.9.007-1.348.363-1.363,1.239-.04,2.4-.03,4.8-.007,7.2a1.148,1.148,0,0,0,1.251,1.267c1.609.008,3.218.017,4.827,0a1.121,1.121,0,0,0,1.221-1.278c-.005-1.17,0-2.34,0-3.511S-384.277,288.579-384.289,287.409Zm-3.136,6.021c-1.857-.035-1.858-.009-1.858-1.846,0-.9.02-1.808-.009-2.711-.014-.435.086-.591.565-.605,2.16-.064,2.159-.082,2.159,2.06v.525a14.566,14.566,0,0,0,.014,1.747C-386.464,293.333-386.784,293.442-387.425,293.43Z" transform="translate(450.367 -242.337)" fill="#003b71"/>
  <path id="Path_57" data-name="Path 57" d="M-406.654,338.569a1.2,1.2,0,0,0-1.341-1.3q-2.326-.037-4.654,0c-.9.015-1.318.47-1.329,1.381-.014,1.142,0,2.283,0,3.426,0,1.171-.008,2.342,0,3.513.009.947.375,1.4,1.282,1.428,1.58.044,3.162.033,4.743,0a1.221,1.221,0,0,0,1.307-1.339C-406.631,343.312-406.622,340.94-406.654,338.569Zm-2.289,4.109c0,2.247,0,2.241-2.293,2.048-.308-.026-.481-.067-.477-.434.016-1.43.013-2.86,0-4.29,0-.325.083-.505.44-.456a.408.408,0,0,0,.088,0c2.242-.127,2.242-.127,2.242,2.608Z" transform="translate(461.081 -266.871)" fill="#003b71"/>
  <path id="Path_58" data-name="Path 58" d="M-361.822,312.954c-.011-.92-.462-1.323-1.376-1.329q-2.283-.019-4.566,0c-.968.007-1.375.416-1.386,1.388-.013,1.141,0,2.283,0,3.425,0,1.171-.01,2.342,0,3.513.011.95.38,1.353,1.312,1.369q2.326.038,4.654,0c.93-.013,1.353-.412,1.363-1.341Q-361.782,316.467-361.822,312.954Zm-2.287,5.611c0,.334-.1.5-.451.464-.029,0-.058,0-.088,0-.721-.051-1.832.314-2.073-.13-.352-.651-.091-1.635-.091-2.477h-.064v-.439c0-2.321,0-2.313,2.312-2.093.334.032.459.12.456.462Q-364.129,316.458-364.109,318.565Z" transform="translate(439.621 -254.599)" fill="#003b71"/>
  <path id="Path_59" data-name="Path 59" d="M-406.646,313.045c-.022-1.018-.446-1.415-1.467-1.421q-2.2-.012-4.391,0c-1.08.005-1.473.394-1.476,1.475q-.011,3.38,0,6.762c0,1.06.364,1.448,1.4,1.462q2.239.03,4.478,0c1.065-.013,1.444-.414,1.459-1.517s0-2.225,0-3.337C-406.64,315.328-406.621,314.186-406.646,313.045Zm-2.5,5.888a6.738,6.738,0,0,1-2.342.085c-.257,0-.22-.222-.22-.388,0-1.435.009-2.869-.009-4.3,0-.361.137-.469.462-.428a.541.541,0,0,0,.088,0c2.22-.1,2.22-.1,2.22,2.547a7.688,7.688,0,0,1-.006.877C-409.013,317.882-408.656,318.745-409.143,318.934Z" transform="translate(461.08 -254.6)" fill="#003b71"/>
  <path id="Path_60" data-name="Path 60" d="M-406.651,261.739c-.011-.95-.47-1.341-1.452-1.347q-2.239-.013-4.478,0c-.973.007-1.387.415-1.4,1.379-.014,1.141,0,2.283,0,3.425s-.006,2.283,0,3.425c.007,1.069.358,1.46,1.39,1.475q2.283.034,4.566,0c.939-.015,1.364-.409,1.375-1.332Q-406.61,265.252-406.651,261.739Zm-2.287,5.6c0,.342-.118.492-.458.459-.029,0-.059,0-.088,0-.72-.055-1.827.318-2.072-.136-.353-.652-.09-1.637-.09-2.481h-.06v-.439c0-2.33,0-2.321,2.32-2.088.34.034.451.134.449.469Q-408.958,265.233-408.938,267.341Z" transform="translate(461.081 -230.076)" fill="#003b71"/>
  <path id="Path_61" data-name="Path 61" d="M-361.821,261.732a1.2,1.2,0,0,0-1.371-1.34q-2.283-.02-4.566,0c-.968.007-1.38.42-1.392,1.386-.013,1.141,0,2.283,0,3.425,0,1.171-.01,2.342,0,3.513.01.951.377,1.36,1.306,1.377,1.551.029,3.1.027,4.654,0,.935-.014,1.359-.412,1.368-1.338Q-361.781,265.245-361.821,261.732Zm-2.8,6.068c-.029,0-.058,0-.088,0-.7-.02-1.722.23-2.011-.123-.475-.579-.073-1.564-.155-2.185v-.8c0-2.226,0-2.213,2.287-2.035.395.031.486.164.482.526q-.024,2.064,0,4.128C-364.1,267.7-364.254,267.84-364.622,267.8Z" transform="translate(439.622 -230.075)" fill="#003b71"/>
  <path id="Path_62" data-name="Path 62" d="M-361.822,287.341c-.011-.92-.462-1.324-1.377-1.331q-2.283-.02-4.566,0c-.968.007-1.375.419-1.386,1.39-.012,1.142,0,2.283,0,3.425,0,1.171-.01,2.342,0,3.513.011.947.38,1.355,1.313,1.373q2.326.043,4.653,0c.928-.015,1.352-.42,1.363-1.346Q-361.782,290.853-361.822,287.341Zm-2.745,6.076c-.029,0-.058,0-.088,0-.719-.055-1.826.318-2.072-.136-.353-.652-.09-1.638-.09-2.481h-.059v-.439c0-2.331,0-2.322,2.319-2.088.34.034.451.136.448.47q-.019,2.108,0,4.216C-364.106,293.3-364.227,293.45-364.567,293.416Z" transform="translate(439.621 -242.337)" fill="#003b71"/>
  <path id="Path_63" data-name="Path 63" d="M-406.645,287.442c-.021-1.023-.443-1.426-1.458-1.432q-2.2-.014-4.391,0c-1.086.005-1.482.392-1.486,1.468q-.011,3.38,0,6.762c0,1.092.37,1.465,1.478,1.478,1.434.017,2.869.015,4.3,0,1.177-.011,1.547-.4,1.557-1.6.009-1.083,0-2.166,0-3.249C-406.64,289.725-406.623,288.583-406.645,287.442Zm-2.291,5.411c.005.4-.089.552-.529.578-2.242.135-2.242.15-2.242-2.084v-.967c0-2.214,0-2.2,2.214-2.107.4.017.568.1.559.539C-408.96,290.159-408.954,291.506-408.936,292.853Z" transform="translate(461.08 -242.339)" fill="#003b71"/>
</svg>
