<svg xmlns="http://www.w3.org/2000/svg" width="22.783" height="10.136" viewBox="0 0 22.783 10.136">
  <g id="Arrow" transform="translate(22.783 0) rotate(90)" opacity="0.4">
    <path id="Vector" d="M5.067,0A1.265,1.265,0,0,0,3.8,1.265v17.2L2.169,16.818a1.271,1.271,0,0,0-1.8,1.8l3.8,3.8a1.272,1.272,0,0,0,2.164-.9V1.265A1.265,1.265,0,0,0,5.067,0Z" transform="translate(0 0)" fill="#003b71"/>
    <path id="Vector-2" data-name="Vector" d="M5.067,0a1.265,1.265,0,0,0-.9.367l-3.8,3.8a1.271,1.271,0,1,0,1.8,1.8l3.8-3.8A1.265,1.265,0,0,0,5.067,0Z" transform="translate(3.796 16.451)" fill="#003b71"/>
  </g>
</svg>
