<svg xmlns="http://www.w3.org/2000/svg" width="99" height="98.997" viewBox="0 0 99 98.997">
  <g id="Group_74" data-name="Group 74" transform="translate(-289.025 -1035.359)">
    <path id="Path_39" data-name="Path 39" d="M-450.971,105.563a1.546,1.546,0,0,1,1.592,1.462,1.6,1.6,0,0,1-1.5,1.679,1.6,1.6,0,0,1-1.6-1.583A1.542,1.542,0,0,1-450.971,105.563Z" transform="translate(767.797 971.277)" fill="#003b71"/>
    <path id="Path_40" data-name="Path 40" d="M-397.506,86.783a2.016,2.016,0,0,1,1.5-1.194,5.942,5.942,0,0,0,5.053-5.106V77.969a6.018,6.018,0,0,0-6.008-5.064,1.555,1.555,0,0,1-1.228-.789c-3.367-4.627-6.688-9.288-10.092-13.889-.495-.668-.462-1.093.213-1.58a5.62,5.62,0,0,0,2.086-3.247c.676-2.434-2.078-6.774-4.886-6.948h-2.127a10.775,10.775,0,0,0-3.224,2.029c-.779.625-1.579,1.222-2.35,1.855a1.239,1.239,0,0,1-1.3.273,6.274,6.274,0,0,0-5.831,1.067c-1.31.989-2.6,2.01-3.875,3.039a1.546,1.546,0,0,0-.326,2.362q4.517,5.784,9.071,11.539a1.5,1.5,0,0,0,2.292.267q2.076-1.576,4.1-3.223a6.193,6.193,0,0,0,1.877-2.754,6.41,6.41,0,0,0,.359-2.462c-.015-.408-.163-.927.363-1.067.47-.126.545.436.76.705.521.653.989,1.348,1.481,2.024q4.195,5.781,8.379,11.567c.178.248.647.476.115.928a6.121,6.121,0,0,0,.514,9.736c.3.2.335.361.174.683q-4.044,8.093-8.058,16.2a.712.712,0,0,1-.72.493c-2.127-.015-4.254-.019-6.38,0-.477,0-.568-.182-.609-.619-.077-.818.455-.712.923-.67a4.734,4.734,0,0,0,5.231-5.248c-.062-.9.011-1.806-.038-2.705a4.559,4.559,0,0,0-3.311-4.168,6.268,6.268,0,0,0-2.107-.2c-.47.029-.659-.115-.754-.608a3.1,3.1,0,0,0-3.42-2.822c-3-.014-5.993,0-8.99,0-2.609,0-3.822,1.222-3.823,3.85q0,6.187,0,12.374c0,.5.015.829-.682.827q-10.778-.039-21.556,0c-.527,0-.646-.18-.637-.667.027-1.385.048-2.773-.007-4.156-.027-.66.2-.782.807-.778,4.06.026,8.12.019,12.18.012a5.242,5.242,0,0,0,5.554-5.57c.006-8.861-.025-17.722.015-26.583a5.446,5.446,0,0,0-5.571-5.576q-19.719.127-39.439,0a5.437,5.437,0,0,0-5.6,5.64c.051,8.828.011,17.658.018,26.486a5.225,5.225,0,0,0,5.6,5.606c4.06,0,8.12.014,12.18-.013.594,0,.771.136.745.741a31.082,31.082,0,0,0,.007,3.671c.074.97-.206,1.215-1.19,1.2-5.51-.055-11.02-.036-16.53-.022a3.069,3.069,0,0,0-3.38,3.424c0,1.1-.011,2.191,0,3.287a2.956,2.956,0,0,0,2.672,3.02,17.1,17.1,0,0,0,3.085.067c.857-.059,1.046.2,1.043,1.045-.033,10.182-.021,20.365-.021,30.547,0,1.949.4,2.344,2.382,2.344h12.663c1.709,0,2.144-.441,2.144-2.176q0-15.37-.017-30.74c0-.756.112-1.025.963-1.021q12.856.057,25.713,0c.817,0,.993.225.991,1.017q-.043,15.37-.018,30.74c0,1.747.425,2.177,2.142,2.177h36.25c1.749,0,2.218-.47,2.218-2.228q0-15.37-.014-30.739c0-.712.114-1.065.921-.961.57.074,1.161-.026,1.737.022a3.8,3.8,0,0,0,4.139-2.25v-5.221a3.018,3.018,0,0,0-3.295-2.574c-3.057-.012-6.114,0-9.171,0-1.38,0-1.4-.037-.809-1.232C-401.99,95.767-399.727,91.285-397.506,86.783Zm-18.927-23.542c-.794.7-1.664,1.31-2.478,1.988-.313.261-.472.166-.688-.109q-3.33-4.244-6.674-8.475c-.112-.143-.31-.331-.082-.486,1.261-.861,2.243-2.144,3.789-2.572a3.078,3.078,0,0,1,3.319.971c1.176,1.356,2.255,2.8,3.342,4.231a2.771,2.771,0,0,1,.608,1.627A3.545,3.545,0,0,1-416.433,63.241Zm6.451-9.362c-1.054.837-2.127,1.651-3.154,2.521-.363.307-.506.167-.726-.119-.763-.991-1.523-1.983-2.321-2.945-.333-.4-.374-.638.088-.98,1-.742,1.949-1.566,2.945-2.319a1.776,1.776,0,0,1,2.758.378c.481.615,1.169,1.142,1.1,2.085A1.584,1.584,0,0,1-409.982,53.879Zm12.92,22.349a3.109,3.109,0,0,1,3.013,3.035,3.054,3.054,0,0,1-3,3.02,2.959,2.959,0,0,1-3.067-3.008A3.022,3.022,0,0,1-397.062,76.228ZM-415.7,91.285c1.426-.183,2.407.238,2.483,1.171a21.53,21.53,0,0,1,0,3.653c-.088.984-1.838,1.672-2.77,1.191-.275-.142-.169-.389-.173-.594-.013-.8,0-1.6,0-2.408a10.44,10.44,0,0,1,.023-1.729C-416.071,92.133-416.632,91.4-415.7,91.285ZM-429.288,94.7c0-2.027.018-4.055-.012-6.082-.009-.583.08-.836.764-.826,2.832.043,5.664.03,8.5.007.523,0,.714.111.711.679q-.037,6.227,0,12.454c0,.615-.189.74-.762.735q-4.2-.042-8.4,0c-.611.007-.829-.133-.815-.788C-429.262,98.816-429.288,96.756-429.288,94.7ZM-484.2,64.158c0-1.991.651-2.624,2.677-2.624h38.839c2.045,0,2.7.658,2.7,2.717,0,5.862-.019,11.722.023,17.583.006.843-.255.978-1.023.975-7.052-.03-14.105-.018-21.158-.018-7.021,0-14.042-.013-21.062.018-.765,0-1.029-.126-1.022-.97C-484.183,75.945-484.2,70.051-484.2,64.158Zm2.694,28.848c-2.069.006-2.691-.629-2.694-2.715,0-1.192.044-2.386-.017-3.575-.036-.688.179-.841.847-.839,7.087.025,14.174.015,21.261.015s14.175.013,21.262-.02c.74,0,.92.192.884.9-.062,1.221-.011,2.448-.019,3.671-.012,1.864-.7,2.56-2.582,2.556-7.73-.013-15.461-.049-23.191-.052C-471.008,92.951-476.257,92.992-481.508,93.006Zm23.086,8.051c.008.454-.105.61-.585.6-2.056-.026-4.114-.022-6.17,0-.455,0-.613-.123-.6-.594q.041-2.169,0-4.339c-.009-.466.133-.607.6-.593,1.027.032,2.057.01,3.085.01s2.057.022,3.086-.01c.458-.014.6.116.6.587Q-458.465,98.887-458.421,101.057Zm-11.466,41.316q-4.684-.064-9.369,0c-.655.008-.792-.2-.789-.812.023-4.894.013-9.788.013-14.682,0-4.8.015-9.6-.017-14.393,0-.7.14-.93.89-.919q4.636.071,9.273,0c.71-.01.825.22.823.868q-.031,14.537,0,29.075C-469.062,142.161-469.182,142.383-469.888,142.374Zm69.035-.863c0,.662-.147.862-.839.86q-16.384-.034-32.769,0c-.629,0-.792-.158-.791-.789q.032-14.6,0-29.192c0-.712.227-.82.867-.817,5.445.026,10.89.015,16.336.015,5.413,0,10.826.015,16.239-.017.742,0,.966.164.963.942Q-400.891,127.011-400.852,141.51Zm5.655-36.7c.994,0,1.3.253,1.162,1.2-.107.754.327,1.8-.17,2.21-.467.384-1.469.135-2.236.135q-22.037.005-44.075,0-22.666,0-45.332.024c-.873,0-1.111-.227-1.021-1.055.086-.792-.243-1.841.156-2.328.423-.516,1.507-.154,2.3-.155Q-439.8,104.829-395.2,104.808Z" transform="translate(778.978 988.907)" fill="#003b71"/>
  </g>
</svg>
