<svg xmlns="http://www.w3.org/2000/svg" width="56" height="56" viewBox="0 0 56 56">
  <g id="Group_205" data-name="Group 205" transform="translate(-968 -3304)">
    <g id="Group_48" data-name="Group 48" transform="translate(968 3303.549)">
      <rect id="Rectangle_61" data-name="Rectangle 61" width="56" height="56" rx="8" transform="translate(0 0.451)" fill="#003b71" opacity="0.106"/>
    </g>
    <path id="Path_16" data-name="Path 16" d="M727.059,685.622a3.342,3.342,0,0,0-3.4-2.506c-.348.009-.366-.115-.359-.387a12.96,12.96,0,0,0-1.251-6.05,13.667,13.667,0,0,0-10.18-7.867,30.656,30.656,0,0,0-3.742-.161,11.085,11.085,0,0,0-4.291,1.1,14.152,14.152,0,0,0-7.128,7.333,13.292,13.292,0,0,0-1.055,5.513c.007.257-.033.411-.355.418a3.484,3.484,0,0,0-3.3,2.306,6.725,6.725,0,0,0-.473,2.139v2.531c.095.437.176.877.286,1.311a3.648,3.648,0,0,0,3.316,3.077c.2.019.478-.108.584.053s.03.407.032.618a1.049,1.049,0,0,0,1.141,1.128q2.021,0,4.042,0a1.046,1.046,0,0,0,1.145-1.123q0-6.292,0-12.583a1.045,1.045,0,0,0-1.139-1.128c-.926,0-1.851-.007-2.777,0-.211,0-.264-.064-.227-.259.07-.367.119-.738.2-1.1a11.663,11.663,0,0,1,23,1.081c.03.247-.054.285-.273.282-.925-.011-1.851-.007-2.777,0a1.033,1.033,0,0,0-1.091,1.069q0,6.344,0,12.688a1.034,1.034,0,0,0,1.085,1.076c.726,0,1.453-.005,2.179,0,.312,0,.726-.137.9.062.153.171.05.578.048.881a3.186,3.186,0,0,1-3.285,3.272c-1,0-1.992-.007-2.988.007a.383.383,0,0,1-.412-.262,3.072,3.072,0,0,0-2.9-1.852c-.714-.01-1.429-.006-2.144,0a3.163,3.163,0,0,0,.008,6.325c.715.005,1.429.01,2.144,0a3.066,3.066,0,0,0,2.892-1.861.383.383,0,0,1,.42-.251c1.043.01,2.085.007,3.128,0a5.26,5.26,0,0,0,5.245-5.242c0-.855.005-1.711,0-2.566,0-.225-.006-.363.306-.322a2.534,2.534,0,0,0,.835-.072,3.367,3.367,0,0,0,2.583-2.375,9.768,9.768,0,0,0,.039-6.3m-31.32,3.145c0,1.065-.008,2.131.006,3.2,0,.239-.078.287-.293.292a1.336,1.336,0,0,1-1.4-.94,6.323,6.323,0,0,1-.413-2.506,6.468,6.468,0,0,1,.417-2.68,1.3,1.3,0,0,1,1.427-.891c.2.026.267.082.265.3-.014,1.077-.006,2.154-.006,3.231m2.423-5.324c.491.026.984.023,1.475,0,.258-.011.329.052.327.321-.013,2.1-.007,4.194-.007,6.291,0,1.242-.005,2.484.005,3.725,0,.222-.046.3-.283.292-.5-.02-1.008-.022-1.511,0-.258.011-.33-.052-.328-.321.015-1.675.007-3.35.007-5.026,0-1.652.006-3.3-.006-4.956,0-.255.048-.342.32-.328m22.778,10.628c-.527-.013-1.055-.018-1.581,0-.239.009-.283-.072-.282-.293.009-1.675,0-3.351,0-5.026s.007-3.327-.007-4.991c0-.27.072-.33.328-.32.515.021,1.031.016,1.546,0,.206-.006.247.065.246.256q-.008,5.061,0,10.122c0,.2-.062.252-.255.247m-9.367,8.43q-1,.014-2,0a1.054,1.054,0,1,1,0-2.106c.339-.007.679,0,1.018,0s.655-.006.983,0a1.054,1.054,0,1,1,0,2.106m13.418-11.2a1.345,1.345,0,0,1-1.467.945c-.185-.01-.229-.068-.229-.246q.009-3.248,0-6.5c0-.17.037-.241.219-.263a1.247,1.247,0,0,1,1.3.567,3.93,3.93,0,0,1,.519,1.691c.053.405.06.816.084,1.185a7.439,7.439,0,0,1-.426,2.617" transform="translate(286.515 2644.947)" fill="#003b71"/>
  </g>
</svg>
