<svg xmlns="http://www.w3.org/2000/svg" width="56" height="56" viewBox="0 0 56 56">
  <g id="Group_204" data-name="Group 204" transform="translate(-968 -3099)">
    <g id="Group_49" data-name="Group 49" transform="translate(968 3099)">
      <rect id="Rectangle_62" data-name="Rectangle 62" width="56" height="56" rx="8" fill="#003b71" opacity="0.106"/>
    </g>
    <g id="Group_52" data-name="Group 52" transform="translate(976.795 3111.023)">
      <path id="Path_17" data-name="Path 17" d="M37.706,156.579a5.213,5.213,0,0,0-.11-1.168A5.542,5.542,0,0,0,32.1,151c-1.1,0-2.209,0-3.313,0a4.406,4.406,0,0,0-1.243.1c-.391.113-.558,0-.77-.332a5.22,5.22,0,0,0-4.3-2.558c-2.268-.106-4.539-.037-6.808-.034a5.28,5.28,0,0,0-4.569,2.356,1.065,1.065,0,0,1-1.234.544,33.187,33.187,0,0,0-4.265-.069,5.522,5.522,0,0,0-5.467,4.3c-.039.157.015.347-.131.476V163a5.635,5.635,0,0,0,.654,1.409,3.508,3.508,0,0,0,2.953,1.346q13.418-.012,26.835,0c1.252,0,2.5.007,3.755,0a3.327,3.327,0,0,0,3.506-3.539c0-1.877,0-3.755,0-5.632m-27.643,1.828c0,1.583-.006,3.165,0,4.748,0,.267-.034.379-.349.377-2.1-.017-4.2-.007-6.294-.009a1.11,1.11,0,0,1-1.214-1.207c-.006-1.889-.013-3.779,0-5.668a3.286,3.286,0,0,1,2.539-3.309,2.772,2.772,0,0,1,.758-.11c1.385.007,2.771-.059,4.157.036.323.022.413.13.408.469-.025,1.558-.011,3.116-.011,4.674M25.1,163.53c-2.086-.012-4.173-.007-6.259-.007s-4.148-.007-6.222.008c-.285,0-.335-.08-.334-.346.01-3.117,0-6.235.008-9.352a3.292,3.292,0,0,1,3.421-3.431q3.148-.01,6.3,0a3.289,3.289,0,0,1,3.4,3.414c.006,3.129,0,6.259.008,9.389,0,.253-.054.326-.317.324m10.383-1.09a1.061,1.061,0,0,1-1.146,1.082c-2.135,0-4.27,0-6.4.008-.258,0-.3-.089-.3-.315.008-1.607,0-3.214,0-4.822h-.007c0-1.607,0-3.214-.006-4.822,0-.2.075-.264.241-.284a5.071,5.071,0,0,1,.659-.064c1.361.021,2.722-.058,4.082.048A3.274,3.274,0,0,1,35.423,156c.164,2.143.049,4.291.061,6.436" transform="translate(0 -134.481)" fill="#003b71"/>
      <path id="Path_18" data-name="Path 18" d="M139.838,0a6.563,6.563,0,1,0,6.555,6.567A6.555,6.555,0,0,0,139.838,0m-.012,10.9a4.339,4.339,0,1,1,4.358-4.34,4.375,4.375,0,0,1-4.358,4.34" transform="translate(-120.988 0)" fill="#003b71"/>
      <path id="Path_19" data-name="Path 19" d="M31.423,65.916a4.92,4.92,0,1,0,4.91,4.926,4.969,4.969,0,0,0-4.91-4.926m0,7.612a2.683,2.683,0,1,1,2.672-2.7,2.692,2.692,0,0,1-2.672,2.7" transform="translate(-24.043 -59.834)" fill="#003b71"/>
      <path id="Path_20" data-name="Path 20" d="M280.373,65.917a4.92,4.92,0,1,0,4.912,4.927,4.962,4.962,0,0,0-4.912-4.927m-.027,7.612a2.683,2.683,0,1,1,.029-5.365,2.683,2.683,0,0,1-.029,5.365" transform="translate(-250.026 -59.835)" fill="#003b71"/>
    </g>
  </g>
</svg>
