<svg xmlns="http://www.w3.org/2000/svg" xmlns:xlink="http://www.w3.org/1999/xlink" width="197.425" height="63.332" viewBox="0 0 197.425 63.332">
  <defs>
    <clipPath id="clip-path">
      <rect id="Rectangle_37" data-name="Rectangle 37" width="197.425" height="63.332" fill="none"/>
    </clipPath>
  </defs>
  <g id="Group_6" data-name="Group 6" clip-path="url(#clip-path)">
    <path id="Path_1" data-name="Path 1" d="M207.4,22.97c-1.644-2.034-3.634-.172-5.371.355-14.206,4.3-17.337,5.19-32.172,6.556-3.773.345-6.689-.167-8.647-4.032-1.866-3.68-5.43-4.349-9.026-2.772-4.873,2.139-9.173,5.221-11.291,10.335-1.092,2.635-1.281,5.632-5.322,5.245a7.9,7.9,0,0,1-6.193-4.377l-.8-1.7a18.644,18.644,0,0,0-.993-2.139L114.7,2.743h-.011a1.573,1.573,0,0,0-2.97,0h-.034l-9.217,19.818-3.1-19.075h-.005a1.305,1.305,0,0,0-2.518-.331h-.008l-13.7,26.561L69.4,3.005h0a1.31,1.31,0,0,0-2.459.4h-.006l-3.125,19.1L54.613,2.743H54.6a1.575,1.575,0,0,0-2.975,0h0l-9.2,19.779c-2.256-2.659-6.346-4.263-12.252-5.408-6.3-1.246-9.032-2.673-9.032-5.764,0-3.566,3.091-5.645,8.557-5.645a14.17,14.17,0,0,1,10.28,4.22l2.733-5.171C37.775.18,31.477,0,29.812,0c-9.33,0-14.381,5.111-14.381,11.589,0,5.349,3.15,9.33,14.263,11.231,5.467.951,9.091,2.912,9.091,6.122,0,3.8-3.269,6.237-9.27,6.237a17.189,17.189,0,0,1-12.6-5.881l-2.853,5.109A20.232,20.232,0,0,0,29.4,40.885a21.589,21.589,0,0,0,4.716-.5l-.011.025c5.6-1.066,9.613-7.866,11.31-11.307l7.706-16.981,4.86,10.709h-5.73v4.894H60.2l1.872,4.126h.02l.107.238-1.4,8.322h5.824l1.447-8.74L70.49,17.05,81.748,38.683h.005a1.552,1.552,0,0,0,2.84-.105L95.785,17.113l2.43,14.6,1.447,8.7h5.824l-1.4-8.283.124-.276h.021l8.952-19.729,4.86,10.709h-5.562v4.894h7.782l1.875,4.126h.02l3.493,7.744c.68,1.978,2.258,2.747,4.642,3.355,5.5,1.4,10.849.518,16.082-1.056,2.829-.853,4.8-3.5,2.947-6.062-2.368-3.284-.856-4.7,1.634-5.944,2.53-1.267,5.326-2.556,7.34,1.016,2.845,5.042,7.381,5.292,12.486,4.684,12.148-1.452,12.844-1.3,24.658-4.392,1.751-.457,5.218-2.948,4.356,2.242-.189,1.129-.106,2.477,1.275,2.462a3.744,3.744,0,0,0,2.562-1.632,35.069,35.069,0,0,0,3.018-5.782c.72-1.748,2.178-3.744.743-5.517" transform="translate(-13.112 0)" fill="#0c294c"/>
    <rect id="Rectangle_33" data-name="Rectangle 33" width="197.425" height="13.253" transform="translate(0 50.079)" fill="#0c294c"/>
    <rect id="Rectangle_34" data-name="Rectangle 34" width="1.702" height="9.093" transform="translate(8.547 52.145)" fill="#fff"/>
    <path id="Path_2" data-name="Path 2" d="M357.069,773.2l-2.962,3.948h-.338l-2.9-3.961V779.8h-1.715v-9.094h1.975l2.845,3.91,2.845-3.91h1.96V779.8h-1.713Z" transform="translate(-325.527 -718.549)" fill="#fff"/>
    <path id="Path_3" data-name="Path 3" d="M697.011,773.2l-2.962,3.948h-.338l-2.9-3.961V779.8H689.1v-9.094h1.974l2.845,3.91,2.845-3.91h1.962V779.8h-1.716Z" transform="translate(-642.465 -718.549)" fill="#fff"/>
    <path id="Path_4" data-name="Path 4" d="M1030.516,772.6a4.67,4.67,0,1,1-9.34.012,4.6,4.6,0,0,1,4.716-4.793,4.525,4.525,0,0,1,4.625,4.78m-4.664,3.132a2.878,2.878,0,0,0,2.975-3.1,2.993,2.993,0,1,0-5.962.012,2.886,2.886,0,0,0,2.988,3.092" transform="translate(-952.068 -715.858)" fill="#fff"/>
    <path id="Path_5" data-name="Path 5" d="M1356.262,773.161a1.85,1.85,0,0,1-1.181,1.754,2.219,2.219,0,0,1,1.454,2.027c0,2.026-1.52,2.676-3.4,2.676h-4.313v-9.093h4.313c1.793,0,3.131.8,3.131,2.636m-5.754,1.014h2.623c1.078,0,1.429-.454,1.429-.974,0-.416-.337-1.118-1.429-1.118h-2.623Zm0,3.845h2.623c.7,0,1.7-.234,1.7-1.091,0-.818-1-1.248-1.7-1.248h-2.623Z" transform="translate(-1257.536 -718.379)" fill="#fff"/>
    <rect id="Rectangle_35" data-name="Rectangle 35" width="1.701" height="9.093" transform="translate(111.885 52.145)" fill="#fff"/>
    <path id="Path_6" data-name="Path 6" d="M1877.816,770.525v7.507h4.676v1.586H1876.1v-9.093Z" transform="translate(-1749.134 -718.379)" fill="#fff"/>
    <rect id="Rectangle_36" data-name="Rectangle 36" width="1.701" height="9.093" transform="translate(145.879 52.145)" fill="#fff"/>
    <path id="Path_7" data-name="Path 7" d="M2385.227,779.6h-6.808V770.51h6.808v1.663h-5.106v2.091h4.923v1.6h-4.923v2.052h5.106Z" transform="translate(-2217.459 -718.365)" fill="#fff"/>
    <path id="Path_8" data-name="Path 8" d="M2679.957,779.426H2678l-2.637-3.039h-1.74v3.039H2671.9V770.32c1.442,0,2.884.013,4.326.013a3.015,3.015,0,0,1,3.274,3.014,2.7,2.7,0,0,1-2.3,2.86l2.754,3.1Zm-6.339-7.495v2.91h2.61a1.458,1.458,0,1,0,0-2.91Z" transform="translate(-2491.08 -718.188)" fill="#fff"/>
  </g>
</svg>
