<svg xmlns="http://www.w3.org/2000/svg" width="87.5" height="87.496" viewBox="0 0 87.5 87.496">
  <g id="Group_67" data-name="Group 67" transform="translate(-108.697 -1045.172)">
    <path id="Path_25" data-name="Path 25" d="M-565.94,114.789a1.678,1.678,0,0,1-1.712,1.726,1.676,1.676,0,0,1-1.7-1.733,1.673,1.673,0,0,1,1.668-1.682A1.678,1.678,0,0,1-565.94,114.789Z" transform="translate(740.615 967.304)" fill="#003b71"/>
    <path id="Path_26" data-name="Path 26" d="M-556.616,127.536a1.676,1.676,0,0,1-1.718-1.718,1.675,1.675,0,0,1,1.738-1.7,1.676,1.676,0,0,1,1.677,1.674A1.678,1.678,0,0,1-556.616,127.536Z" transform="translate(736.426 963.115)" fill="#003b71"/>
    <path id="Path_27" data-name="Path 27" d="M-571.451,131.342a1.678,1.678,0,0,1-1.733,1.705,1.679,1.679,0,0,1-1.682-1.754,1.673,1.673,0,0,1,1.689-1.661A1.676,1.676,0,0,1-571.451,131.342Z" transform="translate(742.71 961.02)" fill="#003b71"/>
    <path id="Path_28" data-name="Path 28" d="M-550.289,144.895A1.677,1.677,0,0,1-552,143.166a1.676,1.676,0,0,1,1.749-1.686,1.676,1.676,0,0,1,1.666,1.685A1.677,1.677,0,0,1-550.289,144.895Z" transform="translate(734.017 956.517)" fill="#003b71"/>
    <path id="Path_29" data-name="Path 29" d="M-583.562,98.524Q-604.35,77.778-625.15,57.045c-1.049-1.045-1.878-1.04-2.933.011-1.734,1.728-3.466,3.456-5.18,5.2-.348.355-.537.477-.994.069-4.942-4.414-10.7-6.022-17.133-4.443a17.88,17.88,0,0,0-13.567,12.807c-2.044,6.737-.544,12.838,4.116,18.125.4.454.456.652,0,1.1-2.86,2.814-5.683,5.666-8.516,8.507-1.237,1.24-1.229,1.986.027,3.246q20.442,20.488,40.886,40.973c.395.4.838.744,1.258,1.115h1.2c.472-.434.96-.852,1.415-1.3q4.541-4.515,9.072-9.042l15.6-15.555c1.058-1.055,1.2-2.1.4-2.88s-1.785-.621-2.815.407c-.968.964-1.942,1.922-2.894,2.9-.27.279-.429.3-.721.007q-8.892-8.919-17.81-17.814c-.266-.265-.324-.418-.023-.718q8.952-8.921,17.873-17.871c.331-.332.5-.291.8.017q8.872,8.88,17.77,17.732c.334.332.3.5-.019.807-1.185,1.149-2.347,2.322-3.509,3.494a1.773,1.773,0,0,0-.187,2.633,1.783,1.783,0,0,0,2.638-.2c1.137-1.118,2.272-2.237,3.383-3.38a13.373,13.373,0,0,0,2.232-2.448V99.524A10.117,10.117,0,0,0-583.562,98.524ZM-662.05,78.99a15.245,15.245,0,0,1,11.326-17.746,15.368,15.368,0,0,1,18.912,12.544,15.308,15.308,0,0,1-10.926,17.063,2.667,2.667,0,0,0-1.681,1.319c-.809,1.454-1.669,2.879-2.582,4.443-.89-1.518-1.728-2.869-2.483-4.264a3.087,3.087,0,0,0-1.909-1.539C-657.185,88.9-660.839,84.99-662.05,78.99Zm14.1,39.239q-8.848-8.905-17.723-17.784c-.24-.24-.43-.4-.085-.743q3.909-3.88,7.788-7.791c.1-.1.208-.178.325-.277.168.11.308.2.451.3a17.11,17.11,0,0,0,4.206,2.007,1.439,1.439,0,0,1,.864.738q1.717,2.987,3.465,5.956c.909,1.545,2.413,1.539,3.328-.017q1.747-2.97,3.463-5.959a1.439,1.439,0,0,1,.874-.727,14.669,14.669,0,0,0,3.4-1.538.683.683,0,0,1,1.016.091q3.558,3.626,7.181,7.191c.332.328.372.509.016.864q-8.864,8.829-17.694,17.692C-647.421,118.568-647.608,118.573-647.951,118.228Zm39.528,2.418c.352.351.32.526-.016.859q-8.869,8.816-17.706,17.665c-.376.376-.56.362-.925-.007q-8.754-8.811-17.545-17.585c-.409-.407-.361-.6.022-.986q8.8-8.763,17.572-17.558a5.562,5.562,0,0,0,.415-.53c.245.232.37.345.489.464Q-617.274,111.812-608.423,120.646Zm.052-41.147q-8.874,8.876-17.741,17.759c-.338.34-.51.353-.855,0q-3.414-3.467-6.881-6.884c-.355-.35-.32-.526.014-.863a18.562,18.562,0,0,0,5.613-14.133A18.136,18.136,0,0,0-631.167,66a.724.724,0,0,1,.124-1.121q1.994-1.929,3.921-3.926c.357-.368.559-.477.989-.046q8.832,8.858,17.7,17.679c.156.156.369.275.4.553C-608.136,79.254-608.251,79.38-608.371,79.5Z" transform="translate(778.978 988.907)" fill="#003b71"/>
    <path id="Path_30" data-name="Path 30" d="M-599,147.884a1.679,1.679,0,0,1-1.743,1.695,1.68,1.68,0,0,1-1.672-1.765,1.673,1.673,0,0,1,1.7-1.65A1.676,1.676,0,0,1-599,147.884Z" transform="translate(753.183 954.736)" fill="#003b71"/>
    <path id="Path_31" data-name="Path 31" d="M-611.775,160.6a1.679,1.679,0,0,1-1.666-1.77,1.68,1.68,0,0,1,1.791-1.645,1.678,1.678,0,0,1,1.624,1.726A1.68,1.68,0,0,1-611.775,160.6Z" transform="translate(757.372 950.548)" fill="#003b71"/>
    <path id="Path_32" data-name="Path 32" d="M-595.2,166.111a1.677,1.677,0,0,1-1.707-1.73,1.675,1.675,0,0,1,1.749-1.685,1.676,1.676,0,0,1,1.666,1.685A1.678,1.678,0,0,1-595.2,166.111Z" transform="translate(751.088 948.452)" fill="#003b71"/>
    <path id="Path_33" data-name="Path 33" d="M-644.8,127.536a1.676,1.676,0,0,1-1.7-1.733,1.677,1.677,0,0,1,1.753-1.682,1.676,1.676,0,0,1,1.662,1.689A1.677,1.677,0,0,1-644.8,127.536Z" transform="translate(769.94 963.115)" fill="#003b71"/>
    <path id="Path_34" data-name="Path 34" d="M-622.735,133.047a1.676,1.676,0,0,1-1.726-1.711,1.674,1.674,0,0,1,1.731-1.7,1.675,1.675,0,0,1,1.684,1.666A1.68,1.68,0,0,1-622.735,133.047Z" transform="translate(761.561 961.02)" fill="#003b71"/>
    <path id="Path_35" data-name="Path 35" d="M-633.792,138.557a1.679,1.679,0,0,1-1.691-1.746,1.678,1.678,0,0,1,1.766-1.669,1.676,1.676,0,0,1,1.649,1.7A1.678,1.678,0,0,1-633.792,138.557Z" transform="translate(765.751 958.926)" fill="#003b71"/>
    <path id="Path_36" data-name="Path 36" d="M-595.182,83.451a1.676,1.676,0,0,1-1.726-1.71,1.675,1.675,0,0,1,1.731-1.7,1.676,1.676,0,0,1,1.684,1.667A1.68,1.68,0,0,1-595.182,83.451Z" transform="translate(751.088 979.872)" fill="#003b71"/>
    <path id="Path_37" data-name="Path 37" d="M-589.67,91.057a1.679,1.679,0,0,1,1.687,1.749,1.681,1.681,0,0,1-1.771,1.666,1.677,1.677,0,0,1-1.644-1.708A1.675,1.675,0,0,1-589.67,91.057Z" transform="translate(748.994 975.683)" fill="#003b71"/>
    <path id="Path_38" data-name="Path 38" d="M-600.729,105.494a1.677,1.677,0,0,1-1.69-1.746,1.677,1.677,0,0,1,1.766-1.669,1.676,1.676,0,0,1,1.649,1.7A1.678,1.678,0,0,1-600.729,105.494Z" transform="translate(753.183 971.494)" fill="#003b71"/>
  </g>
</svg>
