<svg xmlns="http://www.w3.org/2000/svg" width="56" height="56" viewBox="0 0 56 56">
  <g id="Group_203" data-name="Group 203" transform="translate(-968 -2882)">
    <rect id="Rectangle_63" data-name="Rectangle 63" width="56" height="56" rx="8" transform="translate(968 2882)" fill="#003b71" opacity="0.106"/>
    <g id="Group_53" data-name="Group 53" transform="translate(980.2 2893.199)">
      <path id="Path_14" data-name="Path 14" d="M382.665,699.479c-.3-.161-.649-.219-.943-.409a2.917,2.917,0,0,1-1.286-2.179c-.06-.421-.143-.838-.209-1.258a.375.375,0,0,0-.294-.337,9.9,9.9,0,0,1-1.658-.68.4.4,0,0,0-.493.032c-.452.341-.914.674-1.4.971a2.586,2.586,0,0,1-3.259-.252,17.8,17.8,0,0,1-1.623-1.621,2.637,2.637,0,0,1-.18-3.426c.294-.433.594-.863.906-1.284a.334.334,0,0,0,.034-.406,9.64,9.64,0,0,1-.695-1.687.441.441,0,0,0-.42-.328c-.6-.1-1.207-.191-1.8-.336a2.638,2.638,0,0,1-1.969-2.484c-.014-.689-.007-1.378,0-2.067a2.678,2.678,0,0,1,2.26-2.719c.514-.1,1.03-.181,1.546-.269a.394.394,0,0,0,.375-.294,9.723,9.723,0,0,1,.707-1.717.333.333,0,0,0-.038-.406q-.465-.633-.906-1.284a2.64,2.64,0,0,1,.183-3.426,17.592,17.592,0,0,1,1.6-1.6,2.642,2.642,0,0,1,3.426-.188c.415.282.832.564,1.23.868a.419.419,0,0,0,.519.052,8.744,8.744,0,0,1,1.627-.669.439.439,0,0,0,.334-.416c.1-.6.191-1.207.335-1.8a2.637,2.637,0,0,1,2.479-1.975c.7-.015,1.4-.009,2.1,0a2.682,2.682,0,0,1,2.692,2.254c.1.514.184,1.03.267,1.546a.419.419,0,0,0,.321.39,9.924,9.924,0,0,1,1.687.694.333.333,0,0,0,.406-.029c.411-.307.834-.6,1.257-.887a2.654,2.654,0,0,1,3.48.176,17.87,17.87,0,0,1,1.556,1.55,2.653,2.653,0,0,1,.192,3.479c-.3.432-.593.864-.9,1.285a.311.311,0,0,0-.028.378,9.651,9.651,0,0,1,.695,1.687.434.434,0,0,0,.414.336c.506.082,1.012.162,1.513.266a2.632,2.632,0,0,1,2.216,2.158c.006.026.035.047.054.071v2.953a3.448,3.448,0,0,1-.849,1.47,2.785,2.785,0,0,1-1.353.685.9.9,0,0,1-1-.6.842.842,0,0,1,.566-1.04,1.155,1.155,0,0,0,.932-1.361c-.015-.557.02-1.117-.014-1.672a.955.955,0,0,0-.893-.965q-1.075-.209-2.156-.383a.965.965,0,0,1-.858-.739,11.766,11.766,0,0,0-1.079-2.618.952.952,0,0,1,.075-1.1c.4-.558.792-1.124,1.187-1.687a1.05,1.05,0,0,0-.126-1.595c-.393-.4-.785-.793-1.184-1.182a1.013,1.013,0,0,0-1.467-.126q-.877.6-1.74,1.226a.991.991,0,0,1-1.159.071,11.121,11.121,0,0,0-2.557-1.054.994.994,0,0,1-.766-.909c-.107-.711-.24-1.418-.38-2.123-.109-.551-.367-.834-.907-.87a16.919,16.919,0,0,0-2.129,0,.923.923,0,0,0-.917.863c-.139.717-.273,1.435-.385,2.156a.98.98,0,0,1-.754.882,11.483,11.483,0,0,0-2.587,1.067.971.971,0,0,1-1.13-.073c-.566-.409-1.14-.807-1.714-1.206a1.036,1.036,0,0,0-1.543.134q-.595.589-1.183,1.183a1.024,1.024,0,0,0-.134,1.493c.4.575.794,1.15,1.207,1.713a1,1,0,0,1,.079,1.187A11.205,11.205,0,0,0,373,679.566a.984.984,0,0,1-.882.755c-.721.113-1.438.253-2.157.381a.935.935,0,0,0-.858.887,13.423,13.423,0,0,0,0,2.194.938.938,0,0,0,.867.878c.719.126,1.436.267,2.156.382a.965.965,0,0,1,.863.732,11.857,11.857,0,0,0,1.079,2.618.95.95,0,0,1-.067,1.1c-.408.567-.8,1.142-1.2,1.715a1.046,1.046,0,0,0,.13,1.569q.566.571,1.137,1.137a1.051,1.051,0,0,0,1.595.127c.555-.388,1.113-.771,1.659-1.17a1.007,1.007,0,0,1,1.188-.068,10.871,10.871,0,0,0,2.527,1.041,1,1,0,0,1,.775.9c.11.721.252,1.438.382,2.156a.926.926,0,0,0,.9.847,21.09,21.09,0,0,0,2.162,0,.952.952,0,0,0,.9-.812.832.832,0,0,1,.75-.673.848.848,0,0,1,.928,1.041,2.648,2.648,0,0,1-2.078,2.11c-.05.012-.112,0-.136.063Z" transform="translate(-367.373 -665.879)" fill="#003b71"/>
      <path id="Path_15" data-name="Path 15" d="M433.548,726.06c.717.73,1.39,1.413,2.061,2.1a3.554,3.554,0,0,1,.61.766,2.878,2.878,0,0,1-.436,3.53,26.461,26.461,0,0,1-1.921,1.881,2.906,2.906,0,0,1-4.169-.155c-.643-.64-1.274-1.293-1.911-1.939-.073-.075-.151-.145-.27-.258a6.429,6.429,0,0,0,6.582,6.912,5.953,5.953,0,0,1,3.328.754,5.454,5.454,0,0,1,1.071.858q2.665,2.739,5.323,5.485a.877.877,0,0,1,.287.82.84.84,0,0,1-1.386.506,2.465,2.465,0,0,1-.212-.205c-1.7-1.75-3.406-3.49-5.089-5.254a3.838,3.838,0,0,0-3.073-1.243,7.922,7.922,0,0,1-7.16-3.568,7.614,7.614,0,0,1-1.331-5.528,1.612,1.612,0,0,1,2.6-1.015,17.435,17.435,0,0,1,1.373,1.361c.373.369.733.751,1.106,1.121a1.225,1.225,0,0,0,1.856.015q.853-.817,1.688-1.651a1.229,1.229,0,0,0,.015-1.88c-.73-.754-1.477-1.492-2.2-2.249a1.656,1.656,0,0,1-.126-2.329,1.638,1.638,0,0,1,1.215-.553,8.066,8.066,0,0,1,6.75,2.826,7.83,7.83,0,0,1,1.863,4.005,7.184,7.184,0,0,1,.08,1.794,3.854,3.854,0,0,0,1.209,3.216c1.728,1.735,3.416,3.511,5.122,5.267a.893.893,0,0,1,.3.907.84.84,0,0,1-1.341.472,1.035,1.035,0,0,1-.122-.109c-1.863-1.925-3.741-3.835-5.58-5.783a4.739,4.739,0,0,1-1.3-3.56,7.208,7.208,0,0,0-.592-3.638,6.317,6.317,0,0,0-5.15-3.651,4.842,4.842,0,0,0-1.061-.027" transform="translate(-417.315 -715.861)" fill="#003b71"/>
    </g>
  </g>
</svg>
